<svg width="2014" height="352" viewBox="0 0 2014 352" fill="none" xmlns="http://www.w3.org/2000/svg">
<path d="M1.20455 335.74V334.717L5.04545 330.513C5.49621 330.02 5.86742 329.592 6.15909 329.229C6.45076 328.861 6.66667 328.517 6.80682 328.195C6.95076 327.869 7.02273 327.528 7.02273 327.172C7.02273 326.763 6.92424 326.409 6.72727 326.109C6.53409 325.81 6.26894 325.579 5.93182 325.416C5.5947 325.253 5.21591 325.172 4.79545 325.172C4.34848 325.172 3.95833 325.265 3.625 325.45C3.29545 325.632 3.03977 325.888 2.85795 326.217C2.67992 326.547 2.59091 326.933 2.59091 327.376H1.25C1.25 326.695 1.4072 326.096 1.72159 325.581C2.03598 325.066 2.46402 324.664 3.00568 324.376C3.55114 324.088 4.16288 323.945 4.84091 323.945C5.52273 323.945 6.12689 324.088 6.65341 324.376C7.17992 324.664 7.5928 325.052 7.89205 325.541C8.19129 326.03 8.34091 326.573 8.34091 327.172C8.34091 327.6 8.26326 328.018 8.10795 328.427C7.95644 328.833 7.69129 329.285 7.3125 329.785C6.9375 330.282 6.41667 330.888 5.75 331.604L3.13636 334.399V334.49H8.54545V335.74H1.20455ZM12.0739 324.104V328.104H10.8239V324.104H12.0739ZM14.983 324.104V328.104H13.733V324.104H14.983Z" fill="#231F20"/>
<path d="M150.681 35L168.681 8.81818H171.596L153.596 35H150.681ZM164.539 32.4943V30.3977L171.238 21.0909H173.079V24.0057H171.954L167.301 30.2955V30.3466H176.505V32.4943H164.539ZM172.005 35V31.8295L172.056 30.9091V21.0909H174.562V35H172.005ZM150.426 22.9318C149.335 22.9318 148.359 22.7486 147.498 22.3821C146.646 22.0156 145.972 21.5128 145.478 20.8736C144.992 20.2344 144.749 19.5057 144.749 18.6875H147.46C147.46 19.2756 147.741 19.7656 148.303 20.1577C148.874 20.5412 149.582 20.733 150.426 20.733C151.269 20.733 151.964 20.5327 152.509 20.1321C153.063 19.723 153.34 19.2244 153.34 18.6364C153.34 18.0227 153.038 17.5284 152.433 17.1534C151.828 16.7784 151.039 16.5909 150.068 16.5909H148.943V14.6989H150.068C150.911 14.6989 151.615 14.5156 152.177 14.1491C152.748 13.7741 153.034 13.2926 153.034 12.7045C153.034 12.142 152.791 11.669 152.305 11.2855C151.819 10.902 151.193 10.7102 150.426 10.7102C149.659 10.7102 149.007 10.9062 148.47 11.2983C147.933 11.6818 147.664 12.1676 147.664 12.7557H145.056C145.073 11.9545 145.316 11.2429 145.785 10.6207C146.254 9.99858 146.889 9.50852 147.69 9.15057C148.491 8.79261 149.403 8.61364 150.426 8.61364C151.448 8.61364 152.352 8.78409 153.136 9.125C153.92 9.45739 154.534 9.91761 154.977 10.5057C155.42 11.0852 155.642 11.75 155.642 12.5C155.642 13.2926 155.36 13.9531 154.798 14.4815C154.235 15.0099 153.494 15.3381 152.573 15.4659V15.5682C153.724 15.7216 154.606 16.0966 155.22 16.6932C155.842 17.2812 156.153 17.9972 156.153 18.8409C156.153 19.625 155.91 20.3281 155.424 20.9503C154.938 21.5639 154.265 22.0497 153.404 22.4077C152.544 22.7571 151.551 22.9318 150.426 22.9318ZM182.961 8.81818V17.8182H180.149V8.81818H182.961ZM189.507 8.81818V17.8182H186.694V8.81818H189.507Z" fill="#231F20"/>
<path d="M1050.9 342.12V339.819L1059.54 330.359C1060.56 329.251 1061.39 328.288 1062.05 327.47C1062.7 326.643 1063.19 325.867 1063.51 325.143C1063.83 324.41 1063.99 323.643 1063.99 322.842C1063.99 321.921 1063.77 321.124 1063.33 320.451C1062.89 319.778 1062.3 319.258 1061.54 318.891C1060.78 318.525 1059.93 318.342 1058.98 318.342C1057.97 318.342 1057.1 318.551 1056.35 318.968C1055.6 319.377 1055.03 319.953 1054.62 320.694C1054.22 321.435 1054.02 322.305 1054.02 323.302H1051C1051 321.768 1051.36 320.421 1052.06 319.262C1052.77 318.103 1053.73 317.2 1054.95 316.552C1056.18 315.904 1057.56 315.58 1059.08 315.58C1060.62 315.58 1061.98 315.904 1063.16 316.552C1064.34 317.2 1065.27 318.073 1065.95 319.173C1066.62 320.272 1066.96 321.495 1066.96 322.842C1066.96 323.805 1066.78 324.747 1066.43 325.667C1066.09 326.579 1065.5 327.597 1064.64 328.722C1063.8 329.839 1062.63 331.203 1061.13 332.813L1055.25 339.103V339.308H1067.42V342.12H1050.9ZM1071.52 336.751V334.143L1083.03 315.938H1084.92V319.978H1083.64L1074.95 333.734V333.938H1090.44V336.751H1071.52ZM1083.84 342.12V335.958V334.744V315.938H1086.86V342.12H1083.84ZM1097.89 315.938V324.938H1095.08V315.938H1097.89ZM1104.44 315.938V324.938H1101.62V315.938H1104.44Z" fill="#231F20"/>
<path d="M1986.91 162.368C1985.22 162.368 1983.72 162.078 1982.39 161.499C1981.08 160.919 1980.04 160.114 1979.26 159.082C1978.49 158.043 1978.08 156.837 1978.01 155.465H1981.23C1981.3 156.308 1981.59 157.037 1982.1 157.651C1982.61 158.256 1983.28 158.724 1984.11 159.057C1984.93 159.389 1985.85 159.555 1986.86 159.555C1987.98 159.555 1988.98 159.359 1989.85 158.967C1990.72 158.575 1991.4 158.03 1991.89 157.331C1992.39 156.632 1992.63 155.823 1992.63 154.902C1992.63 153.939 1992.4 153.091 1991.92 152.358C1991.44 151.617 1990.74 151.037 1989.82 150.619C1988.9 150.202 1987.78 149.993 1986.45 149.993H1984.35V147.18H1986.45C1987.49 147.18 1988.4 146.993 1989.18 146.618C1989.97 146.243 1990.59 145.715 1991.04 145.033C1991.49 144.351 1991.71 143.55 1991.71 142.629C1991.71 141.743 1991.52 140.972 1991.13 140.315C1990.73 139.659 1990.18 139.148 1989.46 138.781C1988.76 138.415 1987.92 138.232 1986.96 138.232C1986.05 138.232 1985.2 138.398 1984.4 138.73C1983.61 139.054 1982.96 139.527 1982.46 140.149C1981.96 140.763 1981.68 141.504 1981.64 142.374H1978.57C1978.62 141.001 1979.04 139.8 1979.81 138.769C1980.59 137.729 1981.6 136.919 1982.85 136.34C1984.12 135.76 1985.5 135.47 1987.01 135.47C1988.63 135.47 1990.02 135.798 1991.18 136.455C1992.34 137.102 1993.23 137.959 1993.85 139.024C1994.47 140.09 1994.78 141.24 1994.78 142.476C1994.78 143.95 1994.39 145.207 1993.62 146.247C1992.85 147.287 1991.81 148.007 1990.49 148.408V148.612C1992.14 148.885 1993.43 149.588 1994.36 150.722C1995.29 151.847 1995.75 153.24 1995.75 154.902C1995.75 156.325 1995.37 157.604 1994.59 158.737C1993.82 159.862 1992.77 160.749 1991.45 161.396C1990.12 162.044 1988.6 162.368 1986.91 162.368ZM2003.64 135.828V144.828H2000.83V135.828H2003.64ZM2010.19 135.828V144.828H2007.37V135.828H2010.19Z" fill="#231F20"/>
<path d="M1917.08 53.3501H1896.75L1895.61 53.5001L1894.55 53.9401L1893.64 54.6401L1892.95 55.5501L1892.51 56.6101L1892.36 57.7501L1892.51 58.8801L1892.95 59.9401L1893.64 60.8501L1894.55 61.5501L1895.61 61.9901L1896.75 62.1401H1933.19V148.52L1794.36 170.52L1706.96 243.53L1625.34 272.34H1543.35L1540.39 268.48H1459.81L1456.85 272.34H668.71L665.75 268.48H585.17L582.21 272.34H500.22L418.6 243.53L331.2 170.52L192.37 148.52V62.1401H137.7V98.5801" stroke="black" stroke-width="4" stroke-miterlimit="10"/>
<path d="M137.7 48.3501V40.6501" stroke="black" stroke-width="2" stroke-miterlimit="77.27"/>
<path d="M192.37 44.5002H137.7" stroke="black" stroke-width="2" stroke-miterlimit="77.27"/>
<path d="M192.37 48.3501V40.6501" stroke="black" stroke-width="2" stroke-miterlimit="77.27"/>
<path d="M1949.55 40.1201H1957.25" stroke="black" stroke-width="2" stroke-miterlimit="77.27"/>
<path d="M1953.4 272.34V40.1201" stroke="black" stroke-width="2" stroke-miterlimit="77.27"/>
<path d="M1949.55 272.34H1957.25" stroke="black" stroke-width="2" stroke-miterlimit="77.27"/>
<path d="M192.37 306.23V298.52" stroke="black" stroke-width="2" stroke-miterlimit="77.27"/>
<path d="M1926.3 302.38H192.37" stroke="black" stroke-width="2" stroke-miterlimit="77.27"/>
<path d="M1926.3 306.23V298.52" stroke="black" stroke-width="2" stroke-miterlimit="77.27"/>
</svg>
