<svg width="40" height="40" viewBox="0 0 40 40" fill="none" xmlns="http://www.w3.org/2000/svg">
<path d="M24.75 11.56V10C24.75 9.59 24.41 9.25 24 9.25C23.59 9.25 23.25 9.59 23.25 10V11.5H16.75V10C16.75 9.59 16.41 9.25 16 9.25C15.59 9.25 15.25 9.59 15.25 10V11.56C12.55 11.81 11.24 13.42 11.04 15.81C11.02 16.1 11.26 16.34 11.54 16.34H28.46C28.75 16.34 28.99 16.09 28.96 15.81C28.76 13.42 27.45 11.81 24.75 11.56ZM28 17.84H12C11.45 17.84 11 18.29 11 18.84V25C11 28 12.5 30 16 30H24C27.5 30 29 28 29 25V18.84C29 18.29 28.55 17.84 28 17.84ZM17.21 26.21C17.16 26.25 17.11 26.3 17.06 26.33C17 26.37 16.94 26.4 16.88 26.42C16.82 26.45 16.76 26.47 16.7 26.48C16.63 26.49 16.57 26.5 16.5 26.5C16.37 26.5 16.24 26.47 16.12 26.42C15.99 26.37 15.89 26.3 15.79 26.21C15.61 26.02 15.5 25.76 15.5 25.5C15.5 25.24 15.61 24.98 15.79 24.79C15.89 24.7 15.99 24.63 16.12 24.58C16.3 24.5 16.5 24.48 16.7 24.52C16.76 24.53 16.82 24.55 16.88 24.58C16.94 24.6 17 24.63 17.06 24.67L17.21 24.79C17.39 24.98 17.5 25.24 17.5 25.5C17.5 25.76 17.39 26.02 17.21 26.21ZM17.21 22.71C17.02 22.89 16.76 23 16.5 23C16.24 23 15.98 22.89 15.79 22.71C15.61 22.52 15.5 22.26 15.5 22C15.5 21.74 15.61 21.48 15.79 21.29C16.07 21.01 16.51 20.92 16.88 21.08C17.01 21.13 17.12 21.2 17.21 21.29C17.39 21.48 17.5 21.74 17.5 22C17.5 22.26 17.39 22.52 17.21 22.71ZM20.71 26.21C20.52 26.39 20.26 26.5 20 26.5C19.74 26.5 19.48 26.39 19.29 26.21C19.11 26.02 19 25.76 19 25.5C19 25.24 19.11 24.98 19.29 24.79C19.66 24.42 20.34 24.42 20.71 24.79C20.89 24.98 21 25.24 21 25.5C21 25.76 20.89 26.02 20.71 26.21ZM20.71 22.71L20.56 22.83C20.5 22.87 20.44 22.9 20.38 22.92C20.32 22.95 20.26 22.97 20.2 22.98C20.13 22.99 20.07 23 20 23C19.74 23 19.48 22.89 19.29 22.71C19.11 22.52 19 22.26 19 22C19 21.74 19.11 21.48 19.29 21.29C19.38 21.2 19.49 21.13 19.62 21.08C19.99 20.92 20.43 21.01 20.71 21.29C20.89 21.48 21 21.74 21 22C21 22.26 20.89 22.52 20.71 22.71ZM24.21 26.21C24.02 26.39 23.76 26.5 23.5 26.5C23.24 26.5 22.98 26.39 22.79 26.21C22.61 26.02 22.5 25.76 22.5 25.5C22.5 25.24 22.61 24.98 22.79 24.79C23.16 24.42 23.84 24.42 24.21 24.79C24.39 24.98 24.5 25.24 24.5 25.5C24.5 25.76 24.39 26.02 24.21 26.21ZM24.21 22.71L24.06 22.83C24 22.87 23.94 22.9 23.88 22.92C23.82 22.95 23.76 22.97 23.7 22.98C23.63 22.99 23.56 23 23.5 23C23.24 23 22.98 22.89 22.79 22.71C22.61 22.52 22.5 22.26 22.5 22C22.5 21.74 22.61 21.48 22.79 21.29C22.89 21.2 22.99 21.13 23.12 21.08C23.3 21 23.5 20.98 23.7 21.02C23.76 21.03 23.82 21.05 23.88 21.08C23.94 21.1 24 21.13 24.06 21.17L24.21 21.29C24.39 21.48 24.5 21.74 24.5 22C24.5 22.26 24.39 22.52 24.21 22.71Z" fill="black"/>
<rect x="0.5" y="0.5" width="39" height="39" rx="19.5" stroke="black" stroke-opacity="0.1"/>
</svg>
