<svg width="21" height="17" viewBox="0 0 21 17" fill="none" xmlns="http://www.w3.org/2000/svg">
<path d="M0 13.875C0 14.5712 0.276562 15.2389 0.768845 15.7312C1.26113 16.2234 1.92881 16.5 2.625 16.5H18.375C19.0712 16.5 19.7389 16.2234 20.2312 15.7312C20.7234 15.2389 21 14.5712 21 13.875V6.65625H0V13.875ZM3.09375 10.3125C3.09375 9.93954 3.24191 9.58185 3.50563 9.31813C3.76935 9.05441 4.12704 8.90625 4.5 8.90625H6.75C7.12296 8.90625 7.48065 9.05441 7.74437 9.31813C8.00809 9.58185 8.15625 9.93954 8.15625 10.3125V11.25C8.15625 11.623 8.00809 11.9806 7.74437 12.2444C7.48065 12.5081 7.12296 12.6562 6.75 12.6562H4.5C4.12704 12.6562 3.76935 12.5081 3.50563 12.2444C3.24191 11.9806 3.09375 11.623 3.09375 11.25V10.3125ZM18.375 0H2.625C1.92881 0 1.26113 0.276562 0.768845 0.768845C0.276562 1.26113 0 1.92881 0 2.625V3.84375H21V2.625C21 1.92881 20.7234 1.26113 20.2312 0.768845C19.7389 0.276562 19.0712 0 18.375 0Z" fill="black"/>
</svg>
