<svg width="24" height="24" viewBox="0 0 24 24" fill="none" xmlns="http://www.w3.org/2000/svg">
<g clip-path="url(#clip0_264_9946)">
<path d="M12.0009 9.472C14.6124 9.472 16.7369 7.34748 16.7369 4.736C16.7369 2.12453 14.6124 0 12.0009 0C9.38944 0 7.26491 2.12453 7.26491 4.736C7.26491 7.34748 9.38944 9.472 12.0009 9.472ZM18.356 11.7671C18.354 11.7665 18.3501 11.765 18.3481 11.7645C17.7314 11.6139 15.8431 11.3497 15.8431 11.3497C15.7402 11.3181 15.6292 11.3272 15.5328 11.3752C15.4365 11.4231 15.3623 11.5062 15.3254 11.6074L12.4831 19.4061C12.3191 19.8559 11.6829 19.8559 11.5189 19.4061L8.67655 11.6074C8.64713 11.5264 8.59356 11.4565 8.52307 11.4071C8.45259 11.3577 8.36862 11.3311 8.28253 11.331C8.2418 11.331 6.30023 11.6032 5.65384 11.764C3.88754 12.2032 2.77344 13.94 2.77344 15.7501V22.2392C2.77344 23.2116 3.5618 24 4.53425 24H19.4661C20.4386 24 21.2269 23.2116 21.2269 22.2392V15.7286C21.2269 13.9263 20.0691 12.3269 18.356 11.7671Z" fill="black"/>
<path d="M13.0729 11.2012C12.9594 11.0775 12.7936 11.0154 12.6258 11.0154H11.3745C11.2068 11.0154 11.0409 11.0776 10.9275 11.2012C10.8435 11.2921 10.7908 11.4075 10.777 11.5305C10.7633 11.6535 10.7892 11.7777 10.8511 11.885L11.52 12.8934L11.2068 15.535L11.8235 17.1754C11.8836 17.3404 12.1169 17.3404 12.177 17.1754L12.7937 15.535L12.4805 12.8934L13.1495 11.885C13.2113 11.7777 13.2371 11.6535 13.2234 11.5305C13.2096 11.4075 13.1568 11.2921 13.0729 11.2012Z" fill="black"/>
</g>
<defs>
<clipPath id="clip0_264_9946">
<rect width="24" height="24" fill="white"/>
</clipPath>
</defs>
</svg>
