<svg width="40" height="40" viewBox="0 0 40 40" fill="none" xmlns="http://www.w3.org/2000/svg">
<path d="M27.3399 22.4899L26.3399 20.8299C26.1299 20.4599 25.9399 19.7599 25.9399 19.3499V16.8199C25.9387 15.704 25.6216 14.6111 25.0252 13.6679C24.4288 12.7246 23.5776 11.9695 22.5699 11.4899C22.3128 11.0333 21.9376 10.6541 21.4838 10.392C21.0299 10.1298 20.514 9.99445 19.9899 9.99992C18.8999 9.99992 17.9199 10.5899 17.3999 11.5199C15.4499 12.4899 14.0999 14.4999 14.0999 16.8199V19.3499C14.0999 19.7599 13.9099 20.4599 13.6999 20.8199L12.6899 22.4899C12.2899 23.1599 12.1999 23.8999 12.4499 24.5799C12.6899 25.2499 13.2599 25.7699 13.9999 26.0199C15.9399 26.6799 17.9799 26.9999 20.0199 26.9999C22.0599 26.9999 24.0999 26.6799 26.0399 26.0299C26.7399 25.7999 27.2799 25.2699 27.5399 24.5799C27.7999 23.8899 27.7299 23.1299 27.3399 22.4899ZM22.8299 28.0099C22.6196 28.5921 22.2352 29.0954 21.7289 29.4514C21.2226 29.8074 20.6189 29.9989 19.9999 29.9999C19.2099 29.9999 18.4299 29.6799 17.8799 29.1099C17.5599 28.8099 17.3199 28.4099 17.1799 27.9999C17.3099 28.0199 17.4399 28.0299 17.5799 28.0499C17.8099 28.0799 18.0499 28.1099 18.2899 28.1299C18.8599 28.1799 19.4399 28.2099 20.0199 28.2099C20.5899 28.2099 21.1599 28.1799 21.7199 28.1299C21.9299 28.1099 22.1399 28.0999 22.3399 28.0699L22.8299 28.0099Z" fill="black"/>
<rect x="0.5" y="0.5" width="39" height="39" rx="19.5" stroke="black" stroke-opacity="0.1"/>
</svg>
