<svg width="24" height="24" viewBox="0 0 24 24" fill="none" xmlns="http://www.w3.org/2000/svg">
<path d="M12.0001 8.25C11.2584 8.25 10.5334 8.46993 9.91668 8.88199C9.29999 9.29404 8.81935 9.87971 8.53552 10.5649C8.25169 11.2502 8.17743 12.0042 8.32212 12.7316C8.46682 13.459 8.82397 14.1272 9.34842 14.6517C9.87286 15.1761 10.541 15.5333 11.2685 15.6779C11.9959 15.8226 12.7499 15.7484 13.4351 15.4645C14.1204 15.1807 14.706 14.7001 15.1181 14.0834C15.5301 13.4667 15.7501 12.7417 15.7501 12C15.7471 11.0064 15.3511 10.0542 14.6484 9.35163C13.9458 8.64901 12.9937 8.25297 12.0001 8.25ZM20.0963 12C20.0944 12.3504 20.0687 12.7003 20.0194 13.0472L22.3018 14.8341C22.4012 14.9161 22.4682 15.0309 22.4908 15.1578C22.5133 15.2847 22.4901 15.4155 22.4251 15.5269L20.266 19.2544C20.2004 19.3647 20.0979 19.4484 19.9767 19.4907C19.8555 19.5329 19.7232 19.5311 19.6032 19.4855L16.9196 18.4073C16.3608 18.8377 15.7493 19.1948 15.0999 19.47L14.6987 22.3191C14.6762 22.4467 14.6101 22.5625 14.5117 22.6468C14.4133 22.7311 14.2887 22.7786 14.1591 22.7812H9.841C9.71381 22.7788 9.59121 22.7333 9.49322 22.6521C9.39523 22.571 9.32763 22.459 9.30147 22.3345L8.90022 19.4855C8.24907 19.2134 7.63711 18.8557 7.08054 18.4219L4.39694 19.5C4.27698 19.5457 4.14477 19.5476 4.02354 19.5054C3.90231 19.4632 3.79984 19.3796 3.73413 19.2694L1.57507 15.5423C1.51008 15.431 1.4868 15.3002 1.50938 15.1733C1.53196 15.0464 1.59894 14.9316 1.69835 14.8495L3.98069 13.0627C3.93201 12.7105 3.90633 12.3555 3.90382 12C3.90577 11.6496 3.93145 11.2997 3.98069 10.9528L1.69835 9.16594C1.59894 9.08386 1.53196 8.96911 1.50938 8.84219C1.4868 8.71527 1.51008 8.58446 1.57507 8.47312L3.73413 4.74563C3.79976 4.63528 3.90221 4.55161 4.02344 4.50934C4.14467 4.46707 4.27693 4.46891 4.39694 4.51453L7.08054 5.59266C7.63934 5.16235 8.25086 4.80524 8.90022 4.53L9.30147 1.68094C9.32393 1.55332 9.39001 1.43746 9.48842 1.35316C9.58682 1.26886 9.71145 1.22135 9.841 1.21875H14.1591C14.2863 1.22123 14.4089 1.26675 14.5069 1.34788C14.6049 1.42901 14.6725 1.54097 14.6987 1.66547L15.0999 4.51453C15.7519 4.78639 16.3646 5.14408 16.9219 5.57812L19.6032 4.5C19.7232 4.45434 19.8554 4.45243 19.9766 4.49461C20.0978 4.53679 20.2003 4.62036 20.266 4.73062L22.4251 8.45813C22.4901 8.56946 22.5133 8.70027 22.4908 8.82719C22.4682 8.95411 22.4012 9.06886 22.3018 9.15094L20.0194 10.9378C20.0681 11.2898 20.0938 11.6446 20.0963 12Z" fill="black"/>
</svg>
