<svg width="28" height="28" viewBox="0 0 28 28" fill="none" xmlns="http://www.w3.org/2000/svg">
<rect width="28" height="28" rx="14" fill="#F5F5F5"/>
<path d="M10.3536 7.64645C10.1583 7.45118 9.84171 7.45118 9.64645 7.64645L6.46447 10.8284C6.2692 11.0237 6.2692 11.3403 6.46447 11.5355C6.65973 11.7308 6.97631 11.7308 7.17157 11.5355L10 8.70711L12.8284 11.5355C13.0237 11.7308 13.3403 11.7308 13.5355 11.5355C13.7308 11.3403 13.7308 11.0237 13.5355 10.8284L10.3536 7.64645ZM10.5 20L10.5 8L9.5 8L9.5 20L10.5 20Z" fill="black"/>
<path d="M17.6464 20.3536C17.8417 20.5488 18.1583 20.5488 18.3536 20.3536L21.5355 17.1716C21.7308 16.9763 21.7308 16.6597 21.5355 16.4645C21.3403 16.2692 21.0237 16.2692 20.8284 16.4645L18 19.2929L15.1716 16.4645C14.9763 16.2692 14.6597 16.2692 14.4645 16.4645C14.2692 16.6597 14.2692 16.9763 14.4645 17.1716L17.6464 20.3536ZM17.5 8V20H18.5V8H17.5Z" fill="black"/>
</svg>
