<svg width="24" height="23" viewBox="0 0 24 23" fill="none" xmlns="http://www.w3.org/2000/svg">
<path d="M2.76684 0.961182H16.7565C18.2798 0.961182 19.5233 2.2047 19.5233 3.72802V18.1218C19.5233 19.6451 18.2798 20.8886 16.7565 20.8886H2.76684C1.24352 20.8886 0 19.6451 0 18.1218V3.69693C0 2.2047 1.24352 0.961182 2.76684 0.961182Z" fill="#4A566E"/>
<path d="M9.04663 13.987L4.94301 9.88335L0 14.8264V18.0906C0 19.6139 1.24352 20.8574 2.76684 20.8574H16.7565C18.2798 20.8574 19.5233 19.6139 19.5233 18.0906V12.7745L14.8912 8.11133L9.04663 13.987Z" fill="#00B594"/>
<path d="M8.92257 9.2929C9.88406 9.2929 10.6635 8.51346 10.6635 7.55197C10.6635 6.59048 9.88406 5.81104 8.92257 5.81104C7.96108 5.81104 7.18164 6.59048 7.18164 7.55197C7.18164 8.51346 7.96108 9.2929 8.92257 9.2929Z" fill="#FFCC03"/>
<path d="M19.5236 22.0388C21.996 22.0388 24.0002 20.0345 24.0002 17.5621C24.0002 15.0897 21.996 13.0854 19.5236 13.0854C17.0512 13.0854 15.0469 15.0897 15.0469 17.5621C15.0469 20.0345 17.0512 22.0388 19.5236 22.0388Z" fill="white"/>
<path d="M18.8701 15.4793C18.8701 15.1062 19.1499 14.8264 19.523 14.8264C19.8649 14.8264 20.1758 15.1062 20.1758 15.4793V19.7072C20.1758 20.0803 19.896 20.3601 19.523 20.3601C19.1499 20.3601 18.8701 20.0803 18.8701 19.7072V15.4793Z" fill="#00B594"/>
<path d="M19.0566 15.9145C18.8079 15.6658 18.8079 15.2616 19.0566 15.0129C19.3054 14.7642 19.7095 14.7642 19.9582 15.0129L21.4504 16.5052C21.6991 16.7539 21.6991 17.158 21.4504 17.4067C21.2017 17.6554 20.7976 17.6554 20.5489 17.4067L19.0566 15.9145Z" fill="#00B594"/>
<path d="M19.0568 15.0129C19.3056 14.7642 19.7097 14.7642 19.9584 15.0129C20.2071 15.2616 20.2071 15.6658 19.9584 15.9145L18.4973 17.4067C18.2486 17.6554 17.8444 17.6554 17.5957 17.4067C17.347 17.158 17.347 16.7539 17.5957 16.5052L19.0568 15.0129Z" fill="#00B594"/>
</svg>
