<svg width="54" height="45" viewBox="0 0 54 45" fill="none" xmlns="http://www.w3.org/2000/svg">
<g clip-path="url(#clip0_112_2)">
<mask id="path-1-inside-1_112_2" fill="white">
<path fill-rule="evenodd" clip-rule="evenodd" d="M9.9055 13.548C6.72273 15.7425 5.92157 20.1016 8.11608 23.2844L16.3479 35.2234C18.5424 38.4062 22.9016 39.2073 26.0844 37.0128L42.8718 25.4379C45.1036 23.8991 46.1644 21.296 45.8424 18.7804C43.0819 19.4878 40.0525 18.4543 38.3405 15.9714C36.4673 13.2545 36.7768 9.68044 38.8873 7.32732L36.4294 3.76254C34.2349 0.57977 29.8757 -0.221379 26.693 1.97313L9.9055 13.548Z"/>
</mask>
<path fill-rule="evenodd" clip-rule="evenodd" d="M9.9055 13.548C6.72273 15.7425 5.92157 20.1016 8.11608 23.2844L16.3479 35.2234C18.5424 38.4062 22.9016 39.2073 26.0844 37.0128L42.8718 25.4379C45.1036 23.8991 46.1644 21.296 45.8424 18.7804C43.0819 19.4878 40.0525 18.4543 38.3405 15.9714C36.4673 13.2545 36.7768 9.68044 38.8873 7.32732L36.4294 3.76254C34.2349 0.57977 29.8757 -0.221379 26.693 1.97313L9.9055 13.548Z" fill="white"/>
<path d="M9.9055 13.548L9.33786 12.7247L9.9055 13.548ZM26.0844 37.0128L25.5167 36.1895L26.0844 37.0128ZM42.8718 25.4379L43.4395 26.2612L42.8718 25.4379ZM45.8424 18.7804L46.8343 18.6534L46.6906 17.5307L45.5941 17.8117L45.8424 18.7804ZM38.8873 7.32732L39.6317 7.995L40.1578 7.40839L39.7105 6.75967L38.8873 7.32732ZM26.693 1.97313L27.2606 2.7964L26.693 1.97313ZM8.93935 22.7168C7.05835 19.9887 7.74505 16.2523 10.4731 14.3713L9.33786 12.7247C5.7004 15.2327 4.7848 20.2146 7.2928 23.852L8.93935 22.7168ZM17.1712 34.6557L8.93935 22.7168L7.2928 23.852L15.5247 35.791L17.1712 34.6557ZM25.5167 36.1895C22.7886 38.0705 19.0522 37.3838 17.1712 34.6557L15.5247 35.791C18.0327 39.4285 23.0146 40.3441 26.652 37.8361L25.5167 36.1895ZM42.3042 24.6147L25.5167 36.1895L26.652 37.8361L43.4395 26.2612L42.3042 24.6147ZM44.8505 18.9074C45.1268 21.0663 44.216 23.2965 42.3042 24.6147L43.4395 26.2612C45.9913 24.5018 47.2019 21.5256 46.8343 18.6534L44.8505 18.9074ZM45.5941 17.8117C43.2264 18.4185 40.6303 17.5307 39.1638 15.4037L37.5173 16.539C39.4747 19.378 42.9373 20.5572 46.0906 19.7491L45.5941 17.8117ZM39.1638 15.4037C37.5589 13.0761 37.8228 10.012 39.6317 7.995L38.1428 6.65964C35.7309 9.34891 35.3756 13.4329 37.5173 16.539L39.1638 15.4037ZM35.6061 4.33019L38.064 7.89496L39.7105 6.75967L37.2526 3.1949L35.6061 4.33019ZM27.2606 2.7964C29.9887 0.915396 33.7251 1.6021 35.6061 4.33019L37.2526 3.1949C34.7446 -0.442556 29.7628 -1.35815 26.1253 1.14985L27.2606 2.7964ZM10.4731 14.3713L27.2606 2.7964L26.1253 1.14985L9.33786 12.7247L10.4731 14.3713Z" fill="black" mask="url(#path-1-inside-1_112_2)"/>
<mask id="path-3-inside-2_112_2" fill="white">
<path fill-rule="evenodd" clip-rule="evenodd" d="M0 18C0 14.134 3.13401 11 7 11H47C50.866 11 54 14.134 54 18V21C50.134 21 47 24.134 47 28C47 31.866 50.134 35 54 35V38C54 41.866 50.866 45 47 45H7C3.13401 45 0 41.866 0 38V35C3.86599 35 7 31.866 7 28C7 24.134 3.86599 21 0 21V18Z"/>
</mask>
<path fill-rule="evenodd" clip-rule="evenodd" d="M0 18C0 14.134 3.13401 11 7 11H47C50.866 11 54 14.134 54 18V21C50.134 21 47 24.134 47 28C47 31.866 50.134 35 54 35V38C54 41.866 50.866 45 47 45H7C3.13401 45 0 41.866 0 38V35C3.86599 35 7 31.866 7 28C7 24.134 3.86599 21 0 21V18Z" fill="white"/>
<path d="M54 21V22H55V21H54ZM54 35H55V34H54V35ZM0 35V34H-1V35H0ZM0 21H-1V22H0V21ZM7 10C2.58172 10 -1 13.5817 -1 18H1C1 14.6863 3.68629 12 7 12V10ZM47 10H7V12H47V10ZM55 18C55 13.5817 51.4183 10 47 10V12C50.3137 12 53 14.6863 53 18H55ZM55 21V18H53V21H55ZM48 28C48 24.6863 50.6863 22 54 22V20C49.5817 20 46 23.5817 46 28H48ZM54 34C50.6863 34 48 31.3137 48 28H46C46 32.4183 49.5817 36 54 36V34ZM55 38V35H53V38H55ZM47 46C51.4183 46 55 42.4183 55 38H53C53 41.3137 50.3137 44 47 44V46ZM7 46H47V44H7V46ZM-1 38C-1 42.4183 2.58172 46 7 46V44C3.68629 44 1 41.3137 1 38H-1ZM-1 35V38H1V35H-1ZM6 28C6 31.3137 3.31371 34 0 34V36C4.41828 36 8 32.4183 8 28H6ZM0 22C3.31371 22 6 24.6863 6 28H8C8 23.5817 4.41828 20 0 20V22ZM-1 18V21H1V18H-1Z" fill="black" mask="url(#path-3-inside-2_112_2)"/>
<line x1="19.5" y1="11" x2="19.5" y2="16" stroke="black"/>
<line x1="19.5" y1="19" x2="19.5" y2="24" stroke="black"/>
<line x1="19.5" y1="27" x2="19.5" y2="32" stroke="black"/>
<line x1="19.5" y1="35" x2="19.5" y2="40" stroke="black"/>
</g>
<defs>
<clipPath id="clip0_112_2">
<rect width="54" height="45" fill="white"/>
</clipPath>
</defs>
</svg>
